#!OML:ASF X:\für Bonn\!DataBase\2005_08_11_Bastian_Final\c3d\Bastian.ASF
:FULLY-SPECIFIED
:DEGREES
31
root -8.79419 16.6231 11.8539 532.275 25.3402 -174.105
lowerback 29.7411 -4.27968 1.99635
upperback 18.3356 -0.041335 4.1747
thorax 4.5292 1.86673 3.67816
lowerneck -9.67427 -12.433 -23.3776
upperneck -12.049 -12.8775 30.4976
head 2.3223 -5.41252 12.9619
rclavicle -4.85035e-014 1.35174e-014
rhumerus -17.2129 20.1481 -87.5665
rradius 68.4608
rwrist 10.6416
rhand -20.984 9.13784
rfingers 7.12502
rthumb 5.3898 -20.7736
lclavicle -4.85035e-014 1.35174e-014
lhumerus -19.597 -35.0441 98.976
lradius 67.6783
lwrist 9.99595
lhand -15.69 -12.5593
lfingers 7.12502
lthumb 10.4992 17.1585
rfemur -1.60371 -7.86062 26.8673
rtibia 46.2259
rfoot -27.4133 2.44734
rtoes -5.00118
lfemur -32.6632 -3.75215 -7.75453
ltibia 33.6134
lfoot -15.1235 -7.23024
ltoes -30.4231
32
root -8.75598 16.6079 11.7687 532.294 25.6016 -174.064
lowerback 29.5126 -4.13687 1.89537
upperback 18.3248 0.0579622 4.0723
thorax 4.6106 1.89773 3.59468
lowerneck -9.68995 -12.4521 -23.4961
upperneck -11.9163 -12.9226 30.6117
head 2.39696 -5.43023 13.0162
rclavicle -3.85642e-014 1.51076e-014
rhumerus -17.4726 20.2888 -87.7852
rradius 68.4832
rwrist 10.7438
rhand -20.9774 9.09965
rfingers 7.12502
rthumb 5.39619 -20.8116
lclavicle -3.85642e-014 1.51076e-014
lhumerus -19.8134 -35.2664 99.0626
lradius 67.7771
lwrist 10.1162
lhand -15.6887 -12.464
lfingers 7.12502
lthumb 10.5004 17.2537
rfemur -1.21694 -7.62444 26.9048
rtibia 46.2111
rfoot -27.6788 2.43289
rtoes -4.98234
lfemur -32.5712 -4.24631 -7.31911
ltibia 32.8222
lfoot -15.1299 -6.67358
ltoes -30.3949
33
root -8.71902 16.5927 11.6815 532.334 25.929 -173.97
lowerback 29.2769 -3.99186 1.8312
upperback 18.3299 0.173256 3.97667
thorax 4.71352 1.94117 3.49597
lowerneck -9.78477 -12.4819 -23.6091
upperneck -11.7552 -12.9707 30.703
head 2.48996 -5.4419 13.0562
rclavicle 1.07344e-014 -3.49861e-014
rhumerus -17.7324 20.4475 -87.9811
rradius 68.4934
rwrist 10.8999
rhand -20.9788 9.03401
rfingers 7.12502
rthumb 5.39483 -20.8773
lclavicle 1.07344e-014 -3.49861e-014
lhumerus -19.9782 -35.501 99.1286
lradius 67.8396
lwrist 10.1712
lhand -15.696 -12.3618
lfingers 7.12502
lthumb 10.4934 17.3563
rfemur -0.81119 -7.36317 26.9828
rtibia 46.1721
rfoot -27.9629 2.46299
rtoes -4.92256
lfemur -32.4638 -4.66329 -6.82914
ltibia 32.1171
lfoot -15.1343 -6.06245
ltoes -30.4439
34
root -8.68288 16.5696 11.5923 532.361 26.2346 -173.903
lowerback 29.0624 -3.8378 1.73208
upperback 18.3219 0.292701 3.88767
thorax 4.79254 1.98237 3.42331
lowerneck -9.86662 -12.5145 -23.6779
upperneck -11.6013 -13.0285 30.7658
head 2.57455 -5.46107 13.0759
rclavicle 5.08889e-014 2.82274e-014
rhumerus -18.0351 20.6489 -88.1534
rradius 68.5398
rwrist 10.9762
rhand -20.966 8.92243
rfingers 7.12502
rthumb 5.40714 -20.9886
lclavicle 5.08889e-014 2.82274e-014
lhumerus -20.1213 -35.7724 99.2086
lradius 67.8926
lwrist 10.3114
lhand -15.6941 -12.257
lfingers 7.12502
lthumb 10.4952 17.461
rfemur -0.413871 -7.14115 27.0172
rtibia 46.1486
rfoot -28.2248 2.4828
rtoes -4.91946
lfemur -32.3652 -5.11043 -6.35459
ltibia 31.4962
lfoot -15.075 -5.5528
ltoes -30.0542
35
root -8.64537 16.5548 11.5018 532.381 26.5481 -173.832
lowerback 28.8259 -3.68816 1.63555
upperback 18.3192 0.40636 3.7864
thorax 4.88822 2.02156 3.3383
lowerneck -9.94077 -12.528 -23.7667
upperneck -11.4413 -13.0588 30.8675
head 2.65913 -5.46632 13.1203
rclavicle 4.77083e-015 -6.75868e-015
rhumerus -18.3572 20.833 -88.3478
rradius 68.5954
rwrist 11.047
rhand -20.9226 8.82646
rfingers 7.12502
rthumb 5.44912 -21.0835
lclavicle 4.77083e-015 -6.75868e-015
lhumerus -20.2868 -36.0882 99.2768
lradius 67.9538
lwrist 10.4442
lhand -15.7388 -12.1409
lfingers 7.12502
lthumb 10.4521 17.5792
rfemur 0.0388272 -6.89688 27.0584
rtibia 46.064
rfoot -28.4855 2.52717
rtoes -4.87743
lfemur -32.2214 -5.54999 -5.87905
ltibia 30.9563
lfoot -15.0494 -5.08466
ltoes -29.5517
36
root -8.60806 16.5405 11.4094 532.412 26.8287 -173.796
lowerback 28.5589 -3.54581 1.51154
upperback 18.3067 0.498771 3.67856
thorax 4.98791 2.04562 3.26709
lowerneck -10.0541 -12.5509 -23.8388
upperneck -11.2461 -13.1037 30.9452
head 2.75941 -5.47604 13.1474
rclavicle 9.54166e-015 1.27222e-014
rhumerus -18.6859 21.0184 -88.5623
rradius 68.6449
rwrist 11.0981
rhand -20.8448 8.69679
rfingers 7.12502
rthumb 5.52418 -21.2112
lclavicle 9.54166e-015 1.27222e-014
lhumerus -20.4178 -36.3799 99.3259
lradius 68.0031
lwrist 10.5774
lhand -15.7283 -12.0694
lfingers 7.12502
lthumb 10.4622 17.6503
rfemur 0.484524 -6.67851 27.0536
rtibia 45.9489
rfoot -28.72 2.57673
rtoes -4.9072
lfemur -32.1076 -5.96429 -5.46044
ltibia 30.5039
lfoot -15.1038 -4.62488
ltoes -29.3157
37
root -8.56841 16.5274 11.3149 532.471 27.0617 -173.701
lowerback 28.2766 -3.41865 1.39918
upperback 18.3 0.580027 3.60511
thorax 5.10259 2.06448 3.2318
lowerneck -10.1825 -12.5788 -23.889
upperneck -11.0666 -13.1497 31.0184
head 2.85615 -5.48496 13.1683
rclavicle -1.98785e-015 2.38542e-014
rhumerus -19.0075 21.2073 -88.7395
rradius 68.6673
rwrist 11.1573
rhand -20.7458 8.6181
rfingers 7.12502
rthumb 5.61979 -21.2874
lclavicle -1.98785e-015 2.38542e-014
lhumerus -20.5068 -36.6968 99.3825
lradius 68.0024
lwrist 10.6744
lhand -15.7531 -12.0075
lfingers 7.12502
lthumb 10.4383 17.7134
rfemur 0.968278 -6.48668 27.1085
rtibia 45.7554
rfoot -28.9366 2.6398
rtoes -4.83622
lfemur -32.0061 -6.27053 -5.03998
ltibia 30.1086
lfoot -15.1895 -4.32678
ltoes -29.6486
38
root -8.52831 16.5146 11.2175 532.557 27.2775 -173.612
lowerback 27.9404 -3.29525 1.29043
upperback 18.2896 0.650881 3.52086
thorax 5.238 2.07688 3.18599
lowerneck -10.3493 -12.6053 -23.8749
upperneck -10.8562 -13.197 31.0384
head 2.95624 -5.49275 13.1542
rclavicle 3.18055e-015 2.90226e-014
rhumerus -19.3209 21.3492 -88.9315
rradius 68.6637
rwrist 11.2091
rhand -20.6238 8.52127
rfingers 7.12502
rthumb 5.7376 -21.381
lclavicle 3.18055e-015 2.90226e-014
lhumerus -20.5993 -37.0151 99.4149
lradius 68.0225
lwrist 10.7779
lhand -15.7433 -11.9615
lfingers 7.12502
lthumb 10.4478 17.7589
rfemur 1.4514 -6.32663 27.1493
rtibia 45.5158
rfoot -29.1134 2.66701
rtoes -4.82434
lfemur -31.9485 -6.53591 -4.65085
ltibia 29.8049
lfoot -15.323 -4.13281
ltoes -30.2041
39
root -8.4883 16.5026 11.1187 532.64 27.478 -173.554
lowerback 27.5814 -3.17977 1.11339
upperback 18.2741 0.692499 3.43538
thorax 5.38086 2.06591 3.18473
lowerneck -10.5095 -12.5992 -23.8736
upperneck -10.6306 -13.2007 31.0798
head 3.05167 -5.4793 13.1601
rclavicle 4.73108e-014 -3.37934e-014
rhumerus -19.646 21.5571 -89.147
rradius 68.6241
rwrist 11.2627
rhand -20.5185 8.45071
rfingers 7.12502
rthumb 5.83927 -21.4488
lclavicle 4.73108e-014 -3.37934e-014
lhumerus -20.6721 -37.237 99.4507
lradius 67.9569
lwrist 10.7979
lhand -15.7559 -12.0119
lfingers 7.12502
lthumb 10.4356 17.7091
rfemur 1.94127 -6.17278 27.1476
rtibia 45.2428
rfoot -29.2872 2.73932
rtoes -4.87263
lfemur -31.8993 -6.7478 -4.32544
ltibia 29.5799
lfoot -15.3722 -4.04361
ltoes -30.5242
40
root -8.4491 16.4907 11.0187 532.745 27.6793 -173.467
lowerback 27.2101 -3.0754 0.95527
upperback 18.2606 0.726187 3.35949
thorax 5.53286 2.05207 3.18605
lowerneck -10.6869 -12.5977 -23.8416
upperneck -10.4202 -13.2058 31.0859
head 3.13915 -5.46555 13.1459
rclavicle -4.17448e-014 1.00585e-013
rhumerus -19.9421 21.7458 -89.3407
rradius 68.5317
rwrist 11.3393
rhand -20.3936 8.42759
rfingers 7.12502
rthumb 5.95978 -21.4686
lclavicle -4.17448e-014 1.00585e-013
lhumerus -20.7238 -37.4192 99.478
lradius 67.8905
lwrist 10.8194
lhand -15.745 -12.0695
lfingers 7.12502
lthumb 10.4462 17.651
rfemur 2.43221 -6.00119 27.1789
rtibia 44.9506
rfoot -29.4336 2.79374
rtoes -4.87403
lfemur -31.8631 -6.89541 -4.0012
ltibia 29.423
lfoot -15.2593 -4.01035
ltoes -30.3508
